<?xml version="1.0" ?><svg width="30px" height="30px" id="Social_media" style="enable-background:new 0 0 90 90;" version="1.1" viewBox="0 0 90 90" xml:space="preserve" xmlns="http://www.w3.org/2000/svg" xmlns:xlink="http://www.w3.org/1999/xlink"><style type="text/css">
	.st0{fill:none;}
	.st1{fill:#FFFFFF;}
</style><g><path class="st0" d="M54.8,51.2c0.3,0.1,0.5,0.2,0.7,0.3c1.3-1,2.5-2,3.8-2.9c0-0.1,0-0.2,0-0.3C57.8,49.2,56.3,50.2,54.8,51.2z"/><path class="st0" d="M22,67.2c-0.2,0.2-0.3,0.4-0.5,0.5c0.5-0.4,1.1-0.8,1.6-1.2C22.7,66.8,22.3,67,22,67.2z"/><path class="st0" d="M74.6,40.7c0-0.1,0-0.2,0-0.4c-0.1,0.1-0.2,0.2-0.3,0.3C74.4,40.6,74.5,40.7,74.6,40.7z"/><path class="st0" d="M62,21.5c0-0.1-0.1-0.1-0.1-0.2c-1.2,0.9-2.5,1.8-3.7,2.7C59.4,23.2,60.7,22.4,62,21.5z"/><path class="st0" d="M60.8,31.9c-0.1-0.1-0.1-0.1-0.2-0.2c-0.9,0.7-1.7,1.3-2.6,2c0,0,0,0,0,0C59,33.1,59.9,32.5,60.8,31.9z"/><path class="st0" d="M25,50.7c0.1,0.1,0.1,0.2,0.2,0.3c0.8-0.6,1.7-1.3,2.5-1.9c0,0,0-0.1,0-0.1C26.8,49.5,25.9,50.1,25,50.7z"/><path class="st0" d="M17.1,74.4c-0.1,0.1-0.2,0.1-0.3,0.1c0.1,0.1,0.2,0.2,0.3,0.3C17.1,74.7,17.1,74.6,17.1,74.4z"/><path class="st0" d="M27.2,12.8c0.1,0,0.2-0.1,0.4-0.1c-0.2,0-0.3,0-0.5,0C27.2,12.7,27.2,12.8,27.2,12.8z"/><path class="st0" d="M39.9,12.9C40,12.9,40,12.9,39.9,12.9C40,12.9,40,12.9,39.9,12.9C39.9,12.9,39.9,12.9,39.9,12.9z"/><path class="st0" d="M45,74.1c0,0-0.1,0-0.1-0.1c-0.2,0.1-0.4,0.2-0.6,0.3c0.3,0,0.5,0,0.8,0C45,74.2,45,74.1,45,74.1z"/><path class="st0" d="M66.5,73.5c-0.1-0.2-0.2-0.4-0.2-0.6c-0.2,0.2-0.5,0.4-0.9,0.6C65.7,73.4,66.1,73.4,66.5,73.5z"/><path d="M81,44.8c-0.7-9.9,4-20.5,0.3-30.3c-3.3-8.5-16-7-23.3-7.3C51.5,6.9,45.4,7.4,39,8C33,8.6,26.6,6.7,20.6,8.3   c-0.3,0.1-0.5,0.2-0.8,0.2C10.7,8,8.4,17.9,7.9,25.1C7,37.3,7.5,49.6,8.6,61.8c0.8,9.1,1.8,17.9,12.1,20.5c5.2,1.3,10.7,0.7,16,0.5   c6.4-0.2,12.9-0.4,19.3-0.5c7.8-0.2,20.7,1.9,24.8-6.8c1.7-3.7,1.4-8.2,1.3-12.1C82,57.1,81.5,51,81,44.8z M27.8,49.1   c-0.8,0.6-1.7,1.2-2.5,1.9c-0.1-0.1-0.1-0.2-0.2-0.3c0.9-0.6,1.8-1.2,2.7-1.7c-0.2-5.4-0.4-10.9-0.5-16.3c-0.1-3.5,5.3-3.4,5.4,0   c0.2,10.4,0.6,20.8,1.2,31.2c0.2,3.4-5.1,3.4-5.4,0C28.2,58.9,28,54,27.8,49.1z M37.7,62c-0.8-9.7-2.2-19.6-1.9-29.3   c0.1-3.4,5.5-3.4,5.4,0c0,0.3,0,0.6,0,0.9c5.3-3.5,11.5-4.4,16.9,0.2c0.9-0.6,1.7-1.3,2.6-2c0.1,0.1,0.1,0.1,0.2,0.2   c-0.9,0.6-1.8,1.2-2.7,1.8c0.3,0.2,0.6,0.5,0.9,0.8c6.9,6.9,6,18.8,6.7,27.8c0.3,3.4-5.1,3.4-5.4,0c-0.3-4.4-0.3-9.2-1-13.7   c-1.3,1-2.5,2-3.8,2.9c-0.2-0.1-0.5-0.2-0.7-0.3c1.5-1,2.9-2,4.4-2.9c-0.3-1.6-0.6-3.3-1.1-4.8c-1.2-3.6-3.8-7.1-7.8-7.6   c-3.7-0.5-6.7,2-9.2,4.4c0.3,7.2,1.2,14.5,1.8,21.7C43.3,65.4,38,65.4,37.7,62z M61.9,21.4c0,0.1,0.1,0.1,0.1,0.2   c-1.3,0.9-2.5,1.7-3.8,2.6C59.4,23.2,60.6,22.3,61.9,21.4z M74.6,40.7c-0.1,0-0.2-0.1-0.3-0.1c0.1-0.1,0.2-0.2,0.3-0.3   C74.6,40.4,74.6,40.6,74.6,40.7z M31.6,19c2,0.6,2.7,2.7,2,4.5c-1.1,2.6-4.6,4-6.8,1.8c-1.1-1.1-1.4-2.9-0.5-4.2   c0.3-0.4,0.6-0.7,1-1c0.2-0.2,0.3-0.4,0.6-0.5C28.8,18.7,30.3,18.6,31.6,19z M22,67.2c0.4-0.2,0.7-0.4,1.1-0.6   c-0.6,0.4-1.1,0.8-1.6,1.2C21.6,67.6,21.8,67.4,22,67.2z M44.9,74c0,0,0.1,0,0.1,0.1c0,0.1,0,0.1,0,0.2c-0.3,0-0.5,0-0.8,0   C44.5,74.2,44.7,74.1,44.9,74z M66.3,72.9c0.1,0.2,0.1,0.4,0.2,0.6c-0.4,0-0.8,0-1.1,0C65.7,73.3,66,73.1,66.3,72.9z M39.9,12.9   C39.9,12.9,39.9,12.9,39.9,12.9C40,12.9,40,12.9,39.9,12.9C40,12.9,40,12.9,39.9,12.9z M27.2,12.8c0,0-0.1-0.1-0.1-0.1   c0.2,0,0.3,0,0.5,0C27.5,12.7,27.3,12.8,27.2,12.8z M16.8,74.6c0.1,0,0.2-0.1,0.3-0.1c0,0.1,0,0.3,0,0.5   C17,74.8,16.9,74.7,16.8,74.6z"/><path class="st1" d="M43,62c-0.6-7.2-1.6-14.4-1.8-21.7c2.5-2.4,5.5-4.9,9.2-4.4c4,0.5,6.6,4,7.8,7.6c0.5,1.5,0.8,3.1,1.1,4.8   c0,0.1,0,0.2,0,0.3c0.7,4.5,0.6,9.3,1,13.7c0.3,3.4,5.6,3.4,5.4,0c-0.7-9,0.2-20.9-6.7-27.8c-0.3-0.3-0.6-0.5-0.9-0.8c0,0,0,0,0,0   c-5.4-4.6-11.6-3.6-16.9-0.2c0-0.3,0-0.6,0-0.9c0.1-3.4-5.2-3.4-5.4,0c-0.4,9.8,1,19.6,1.9,29.3C38,65.4,43.3,65.4,43,62z"/><path class="st1" d="M33.8,63.8c-0.6-10.4-1-20.8-1.2-31.2c-0.1-3.4-5.4-3.5-5.4,0c0.1,5.4,0.3,10.9,0.5,16.3c0,0,0,0.1,0,0.1   c0.2,4.9,0.4,9.8,0.7,14.7C28.7,67.3,34.1,67.3,33.8,63.8z"/><path class="st1" d="M27.8,19.5c-0.2,0.2-0.4,0.3-0.6,0.5c-0.4,0.3-0.7,0.6-1,1c-0.9,1.3-0.6,3.1,0.5,4.2c2.2,2.1,5.7,0.8,6.8-1.8   c0.8-1.8,0-3.9-2-4.5C30.3,18.6,28.8,18.7,27.8,19.5z"/></g></svg>